{"title":"Cowboys.And.Aliens.2011.EXTENDED.H.264-nenad023","uid":6837015,"size":1413557630,"categoryP":"video","categoryS":"movies","magnet":"?xt=urn:btih:89c43aecd9a53743c01edd2a330949a7026155db&amp;dn=%09Cowboys.And.Aliens.2011.EXTENDED.H.264-nenad023&amp;tr=udp%3A%2F%2Ftracker.openbittorrent.com%3A80&amp;tr=udp%3A%2F%2Fopen.demonii.com%3A1337&amp;tr=udp%3A%2F%2Ftracker.coppersurfer.tk%3A6969&amp;tr=udp%3A%2F%2Fexodus.desync.com%3A6969","seeders":0,"leechers":0,"uploader":"nenadpopov","files":3,"time":1322046756,"description":"A spaceship arrives in Arizona, 1873, to take over the Earth, starting with the Wild West region. A posse of cowboys and natives are all that stand in their way.\n\n Cowboys.And.Aliens.2011.EXTENDED.H.264-nenad023.mkv\n\n\nGeneral\nComplete name            :Cowboys.And.Aliens.2011.EXTENDED.H.264-nenad023.mkv\nFormat                           : Matroska\nFormat version            : Version 1\nFile size                          : 1.32 GiB\nDuration                       : 2h 15mn\n\n\nVideo\n\nFormat                                          : AVC\nFormat/Info                                 : Advanced Video Codec\nFormat profile                             : &lt;a class=&quot;__cf_email__&quot; href=&quot;/cdn-cgi/l/email-protection&quot; data-cfemail=&quot;bcf1ddd5d2fcf089928d&quot;&gt;[email&amp;#160;protected]&lt;/a&gt;&lt;script cf-hash='f9e31' type=&quot;text/javascript&quot;&gt;\n/* &lt;![CDATA[ */!function(){try{var t=&quot;currentScript&quot;in document?document.currentScript:function(){for(var t=document.getElementsByTagName(&quot;script&quot;),e=t.length;e--;)if(t[e].getAttribute(&quot;cf-hash&quot;))return t[e]}();if(t&amp;&amp;t.previousSibling){var e,r,n,i,c=t.previousSibling,a=c.getAttribute(&quot;data-cfemail&quot;);if(a){for(e=&quot;&quot;,r=parseInt(a.substr(0,2),16),n=2;a.length-n;n+=2)i=parseInt(a.substr(n,2),16)^r,e+=String.fromCharCode(i);e=document.createTextNode(e),c.parentNode.replaceChild(e,c)}}}catch(u){}}();/* ]]&gt; */&lt;/script&gt;\nFormat settings, CABAC          : Yes\nFormat settings, ReFrames     : 1 frame\nCodec ID                                       : V_MPEG4/ISO/AVC\nDuration                                      : 2h 15mn\nBit rate                                         : 1 174 Kbps\nWidth                                            : 1 280 pixels\nHeight                                          : 528 pixels\nDisplay aspect ratio                  : 2.40:1\nFrame rate                                  : 23.976 fps\nColor space                                 : YUV\nChroma subsampling              : 4:2:0\nBit depth                                     : 8 bits\nScan type                                    : Progressive\nBits/(Pixel*Frame)                   : 0.072\nStream size                                : 1.11 GiB (84%)\nDefault                                       : Yes\nForced                                         : No\n\nAudio\nID                                               : 2\nFormat                                      : MPEG Audio\nFormat version                       : Version 1\nFormat profile                        : Layer 3\nCodec ID                                  : A_MPEG/L3\nCodec ID/Hint                        : MP3\nDuration                                 : 2h 15mn\nBit rate mode                         : Constant\nBit rate                                    : 192 Kbps\nChannel(s)                              : 2 channels\nSampling rate                        : 44.1 KHz\nCompression mode               : Lossy\nStream size                             : 186 MiB (14%)\nWriting library                       : LAMELAME_MAJOR_VERSI\nDefault                                    : Yes\nForced                                      : No\n","torrent":{"xt":"urn:btih:89c43aecd9a53743c01edd2a330949a7026155db","amp;dn":"%09Cowboys.And.Aliens.2011.EXTENDED.H.264-nenad023","amp;tr":["udp%3A%2F%2Ftracker.openbittorrent.com%3A80","udp%3A%2F%2Fopen.demonii.com%3A1337","udp%3A%2F%2Ftracker.coppersurfer.tk%3A6969","udp%3A%2F%2Fexodus.desync.com%3A6969"],"infoHash":"89c43aecd9a53743c01edd2a330949a7026155db","infoHashBuffer":{"type":"Buffer","data":[137,196,58,236,217,165,55,67,192,30,221,42,51,9,73,167,2,97,85,219]},"announce":[],"urlList":[]}}